<svg xmlns="http://www.w3.org/2000/svg" xmlns:xlink="http://www.w3.org/1999/xlink" width="500" zoomAndPan="magnify" viewBox="0 0 375 374.999991" height="500" preserveAspectRatio="xMidYMid meet" version="1.0"><defs><clipPath id="3a8c784503"><path d="M 99 129 L 332 129 L 332 326.570312 L 99 326.570312 Z M 99 129 " clip-rule="nonzero"/></clipPath><clipPath id="85569aa275"><path d="M 55.324219 49.820312 L 288 49.820312 L 288 248 L 55.324219 248 Z M 55.324219 49.820312 " clip-rule="nonzero"/></clipPath></defs><g clip-path="url(#3a8c784503)"><path fill="#ff5722" d="M 318.777344 129.355469 C 319.542969 130.917969 320.277344 132.625 320.980469 134.292969 C 325.320312 144.542969 328.367188 155.164062 330.113281 166.0625 C 331.273438 173.300781 331.851562 180.65625 331.851562 188.101562 C 331.851562 206.753906 328.199219 224.863281 320.980469 241.921875 C 314.015625 258.386719 304.050781 273.175781 291.359375 285.867188 C 278.667969 298.554688 263.886719 308.527344 247.421875 315.492188 C 230.363281 322.707031 212.253906 326.375 193.601562 326.375 C 174.945312 326.375 156.835938 322.742188 139.78125 315.527344 C 124.980469 309.269531 111.539062 300.664062 99.753906 289.71875 L 193.59375 289.71875 C 249.574219 289.71875 295.117188 244.085938 295.117188 188.113281 C 295.117188 180.542969 294.28125 173.136719 292.707031 165.984375 L 193.605469 165.984375 L 193.605469 166.058594 C 181.273438 166.0625 171.4375 176.050781 171.4375 188.242188 C 171.4375 200.433594 181.371094 210.429688 193.59375 210.429688 L 248.183594 210.429688 C 245.261719 217.574219 240.894531 224.175781 235.230469 229.839844 C 224.109375 240.953125 209.320312 247.003906 193.59375 247.003906 C 177.867188 247.003906 163.082031 240.890625 151.964844 229.792969 C 140.835938 218.683594 134.707031 203.902344 134.707031 188.167969 C 134.707031 172.4375 140.84375 157.652344 151.976562 146.542969 C 163.097656 135.445312 177.878906 129.351562 193.613281 129.351562 Z M 318.777344 129.355469 " fill-opacity="1" fill-rule="nonzero"/></g><g clip-path="url(#85569aa275)"><path fill="#ff5722" d="M 55.355469 188.105469 C 55.355469 169.453125 59.007812 151.324219 66.226562 134.273438 C 73.191406 117.808594 83.15625 103.019531 95.847656 90.328125 C 108.539062 77.640625 123.320312 67.667969 139.785156 60.703125 C 156.84375 53.492188 174.953125 49.820312 193.605469 49.820312 C 212.261719 49.820312 230.371094 53.453125 247.425781 60.667969 C 262.226562 66.925781 275.667969 75.53125 287.453125 86.476562 L 193.605469 86.476562 C 137.625 86.476562 92.082031 132.097656 92.082031 188.078125 C 92.082031 210.023438 99.082031 230.316406 110.972656 247.066406 L 68.503906 247.066406 C 67.714844 245.28125 66.953125 243.667969 66.230469 241.949219 C 59.007812 224.886719 55.355469 206.765625 55.355469 188.105469 Z M 55.355469 188.105469 " fill-opacity="1" fill-rule="nonzero"/></g></svg>